<?xml version="1.0" standalone="no"?>
<!DOCTYPE svg PUBLIC "-//W3C//DTD SVG 20010904//EN"
 "http://www.w3.org/TR/2001/REC-SVG-20010904/DTD/svg10.dtd">
<svg version="1.0" xmlns="http://www.w3.org/2000/svg"
 width="1080.000000pt" height="1080.000000pt" viewBox="0 0 1080.000000 1080.000000"
 preserveAspectRatio="xMidYMid meet">
<metadata>
Created by potrace 1.14, written by Peter Selinger 2001-2017
</metadata>
<g transform="translate(0.000000,1080.000000) scale(0.100000,-0.100000)"
fill="#000000" stroke="none">
<path d="M4910 10659 c-1141 -43 -2346 -247 -3238 -546 -325 -108 -452 -177
-618 -336 -85 -80 -121 -133 -164 -240 -68 -172 -73 -217 -73 -667 1 -547 32
-1077 94 -1595 131 -1105 405 -2093 857 -3090 170 -377 272 -568 485 -915 442
-720 852 -1245 1402 -1795 383 -384 744 -692 1237 -1058 238 -176 258 -189
333 -223 115 -52 295 -42 412 22 162 89 689 497 1062 824 148 129 554 525 687
670 325 356 675 815 990 1301 378 586 611 1035 857 1659 500 1266 747 2679
747 4275 0 348 -6 409 -50 524 -47 122 -98 199 -195 296 -137 138 -328 240
-720 383 -662 242 -1717 428 -2795 492 -96 5 -209 13 -250 16 -122 9 -838 11
-1060 3z m1191 -64 c270 -16 763 -59 879 -75 36 -5 92 -12 125 -15 117 -11
507 -67 665 -96 505 -92 791 -163 1140 -279 206 -69 352 -130 532 -222 176
-91 259 -157 349 -280 42 -58 105 -175 100 -186 -1 -1 4 -19 10 -40 17 -52 24
-777 10 -1097 -16 -370 -62 -898 -102 -1170 -75 -517 -133 -817 -231 -1200
-16 -66 -34 -138 -40 -159 -35 -148 -210 -699 -273 -861 -342 -880 -530 -1247
-1011 -1975 -670 -1016 -1297 -1674 -2349 -2467 -298 -224 -367 -258 -522
-251 -117 4 -171 31 -378 184 -1238 918 -1929 1656 -2687 2864 -205 327 -300
500 -438 795 -340 725 -604 1499 -749 2195 -12 58 -28 134 -36 170 -37 176
-108 618 -129 810 -3 25 -12 104 -21 175 -67 580 -102 1665 -62 1911 40 246
141 393 383 554 141 96 233 133 569 234 537 160 1027 266 1720 370 768 115
1773 159 2546 111z"/>
<path d="M5010 10309 c-285 -8 -605 -26 -830 -45 -96 -9 -218 -20 -270 -24
-236 -21 -640 -80 -875 -130 -218 -46 -299 -64 -430 -97 -358 -90 -685 -196
-1005 -327 -254 -104 -333 -164 -402 -299 -51 -103 -57 -161 -56 -577 3 -1071
106 -1940 334 -2830 85 -332 136 -499 263 -850 23 -63 49 -135 57 -160 137
-400 481 -1137 695 -1490 15 -25 49 -81 74 -125 236 -401 677 -981 1088 -1430
214 -234 543 -552 793 -765 313 -268 647 -527 819 -637 59 -38 133 -58 177
-49 69 14 290 165 578 395 142 113 375 309 455 381 539 490 986 978 1354 1478
152 207 387 567 520 797 239 412 480 925 652 1385 37 99 174 512 194 585 8 28
24 82 35 120 171 584 333 1482 380 2110 5 71 14 177 20 235 28 302 49 1179 30
1288 -16 96 -70 204 -133 265 -61 59 -228 142 -487 243 -145 56 -612 206 -700
225 -19 4 -80 19 -135 33 -469 122 -1219 235 -1760 266 -93 6 -246 15 -340 20
-208 13 -790 18 -1095 9z m95 -349 c142 -89 205 -253 205 -535 0 -230 -48
-390 -143 -482 -99 -96 -315 -91 -389 8 -81 107 -111 234 -111 464 -1 183 16
283 64 377 47 95 130 168 212 189 46 11 127 1 162 -21z m806 -17 c117 -52 159
-130 159 -294 0 -86 -3 -106 -24 -147 -28 -54 -69 -96 -110 -112 -35 -13 -37
-4 65 -274 43 -115 79 -213 79 -217 0 -5 -38 -9 -85 -9 -106 0 -87 -32 -205
348 l-41 133 -57 -3 -57 -3 -3 -232 -2 -233 -75 0 -75 0 0 504 c0 277 3 518 6
536 l7 32 186 -4 c160 -4 192 -7 232 -25z m760 -46 c73 -48 126 -124 143 -203
9 -41 -6 -51 -74 -54 -80 -3 -79 -4 -99 43 -42 97 -135 136 -194 82 -48 -45
-56 -67 -67 -180 -21 -231 -6 -426 41 -501 45 -73 134 -105 188 -68 32 23 61
90 61 144 0 77 -6 86 -63 96 -47 8 -52 12 -61 42 -5 20 -5 44 1 65 l9 32 110
-3 c60 -2 120 -9 134 -16 24 -11 25 -14 28 -136 6 -237 -30 -333 -143 -380
-46 -19 -78 -24 -137 -24 -67 0 -84 4 -145 34 -52 27 -75 46 -100 84 -63 92
-93 243 -93 458 0 201 29 336 90 420 60 83 120 110 235 105 74 -3 86 -7 136
-40z m-2273 -5 c55 -29 98 -90 112 -159 18 -84 6 -149 -43 -235 l-43 -74 29
-25 c42 -36 67 -81 77 -143 11 -68 -3 -170 -31 -237 -26 -60 -94 -124 -147
-138 -33 -9 -339 -41 -394 -41 -17 0 -18 23 -17 358 1 196 4 436 8 532 l6 175
85 6 c47 4 137 6 200 5 97 -2 122 -6 158 -24z m2727 -26 l40 -12 5 -201 c3
-115 9 -206 15 -211 11 -10 100 -28 190 -37 33 -4 68 -9 78 -11 16 -5 17 8 17
174 0 99 3 194 6 211 6 27 11 31 39 31 18 0 46 -3 63 -6 l30 -6 3 -332 c4
-557 2 -689 -10 -720 -10 -26 -14 -28 -49 -21 -67 12 -66 10 -72 273 l-5 237
-40 7 c-69 14 -229 38 -251 38 l-22 0 6 -245 5 -245 -61 0 c-103 0 -96 -36
-100 578 l-3 523 38 -7 c21 -4 56 -12 78 -18z m-3380 -231 c8 -255 2 -780 -9
-806 -7 -15 -131 -42 -148 -32 -5 2 -8 120 -8 261 0 141 -4 263 -9 271 -10 16
-36 -61 -106 -309 -61 -218 -75 -260 -85 -260 -10 0 -68 147 -140 358 -44 126
-55 150 -64 135 -6 -10 -12 -126 -15 -273 l-6 -255 -63 -13 c-35 -8 -66 -11
-70 -7 -10 9 -15 772 -7 923 8 142 10 145 109 146 l58 1 28 -80 c24 -68 54
-162 126 -395 7 -25 17 -58 22 -75 5 -16 12 -30 17 -30 4 0 21 45 37 100 103
354 140 475 155 509 20 46 57 65 124 66 l47 0 7 -235z m4187 100 c21 -4 43
-14 50 -23 10 -12 12 -124 10 -541 -2 -289 -5 -527 -7 -529 -2 -2 -34 3 -72
10 l-68 14 -8 124 c-9 142 -2 933 8 950 4 7 17 9 29 6 11 -2 38 -8 58 -11z
m-5270 -245 c41 -143 138 -522 184 -720 8 -36 17 -72 20 -81 3 -12 -8 -20 -48
-32 -29 -9 -66 -18 -82 -19 -34 -4 -34 -3 -67 155 -25 124 -16 118 -143 84
-73 -20 -81 -25 -99 -60 -10 -20 -27 -90 -37 -153 -11 -71 -23 -120 -31 -125
-22 -13 -161 -61 -165 -56 -2 2 30 152 71 333 42 181 87 381 101 444 39 172
73 300 90 336 18 38 72 65 124 61 l34 -2 48 -165z m5666 144 c12 -8 22 -20 22
-28 0 -7 14 -44 31 -82 18 -38 35 -80 40 -94 4 -14 26 -68 47 -120 22 -52 56
-134 75 -182 20 -48 42 -96 49 -107 12 -20 39 -23 55 -7 5 4 10 122 13 261 3
139 8 256 11 260 4 3 33 -4 64 -17 l57 -23 5 -475 c5 -510 1 -583 -33 -588
-27 -4 -69 30 -99 82 -22 38 -189 448 -245 604 -15 40 -28 61 -36 58 -6 -2
-14 5 -17 16 -3 11 -10 17 -16 14 -6 -4 -9 -115 -7 -319 2 -171 2 -315 0 -318
-2 -4 -29 -1 -59 5 -38 7 -60 18 -68 31 -9 14 -13 164 -15 537 l-3 517 53 -5
c29 -3 63 -12 76 -20z m824 -262 c8 -8 23 -1092 15 -1092 -7 0 -31 9 -93 35
l-41 17 -7 66 c-8 86 -8 950 0 990 l6 30 56 -19 c31 -11 60 -23 64 -27z
m-7377 1 c4 -21 11 -225 14 -453 5 -373 8 -415 22 -418 9 -2 58 13 109 33 50
20 115 42 143 49 l52 13 3 -54 c3 -62 -4 -76 -58 -103 -60 -30 -410 -163 -416
-157 -10 10 -21 353 -23 713 l-1 360 62 27 c35 14 68 26 74 26 7 1 15 -16 19
-36z m4060 -802 c157 -33 188 -41 286 -73 109 -34 221 -87 227 -105 5 -18
-118 -17 -188 1 -130 33 -324 54 -334 37 -4 -6 2 -24 13 -40 15 -21 35 -32 73
-41 29 -7 77 -19 107 -27 l55 -15 -28 -15 c-42 -22 -156 -32 -316 -28 -150 4
-193 13 -350 75 -30 12 -89 31 -130 42 -64 17 -81 19 -120 9 -60 -16 -85 -42
-106 -108 -17 -53 -17 -54 6 -78 51 -55 166 -70 705 -94 879 -40 930 -45 1040
-111 79 -48 166 -135 198 -200 23 -47 27 -66 27 -144 0 -107 -26 -212 -64
-257 -14 -17 -29 -49 -33 -72 -6 -42 -47 -91 -86 -103 -11 -3 -49 9 -92 30
-71 35 -130 45 -169 30 -28 -11 -18 -23 39 -50 58 -28 60 -31 71 -109 4 -27
19 -96 35 -152 37 -132 43 -172 30 -205 -9 -24 -16 -28 -48 -28 -98 0 -192 90
-312 302 -45 78 -99 164 -121 190 -49 56 -110 88 -172 88 -72 0 -72 -21 0
-138 32 -53 61 -104 64 -112 3 -9 29 -56 56 -104 31 -53 56 -111 62 -145 6
-31 27 -104 45 -163 19 -59 44 -153 55 -210 20 -102 86 -310 120 -378 9 -19
31 -61 49 -94 17 -32 31 -71 31 -86 0 -16 17 -57 37 -91 20 -34 45 -85 54
-113 l18 -51 76 -7 c165 -15 273 -45 375 -103 52 -30 112 -61 132 -70 21 -8
79 -56 130 -106 207 -203 289 -249 447 -249 113 0 118 -9 46 -75 -33 -30 -82
-67 -110 -82 -47 -26 -57 -28 -170 -27 -125 0 -123 0 -325 73 -36 13 -60 16
-71 10 -13 -7 -23 -1 -43 26 -17 22 -35 35 -50 35 -31 0 -34 -29 -25 -190 6
-108 9 -124 38 -174 35 -62 38 -87 16 -139 -8 -20 -15 -54 -15 -75 0 -21 -5
-43 -11 -49 -7 -7 -12 -37 -12 -69 0 -56 1 -57 52 -103 43 -38 53 -53 58 -87
7 -52 -9 -82 -53 -100 -38 -16 -65 -63 -56 -96 2 -11 20 -29 38 -41 19 -12 34
-29 34 -37 -1 -8 -21 -27 -46 -43 -62 -37 -57 -60 13 -67 30 -3 62 -13 74 -23
19 -17 20 -25 14 -106 -7 -85 -6 -89 16 -105 31 -21 32 -21 76 15 23 19 19 13
-10 -15 l-49 -46 -22 33 c-12 17 -25 40 -29 50 -3 9 -16 17 -27 17 -22 0 -40
-34 -40 -76 0 -40 -41 -30 -109 28 -26 23 -31 34 -31 72 0 25 8 67 19 93 24
62 35 141 32 228 -1 39 5 99 13 135 27 113 21 183 -25 317 -51 145 -78 199
-118 237 -27 26 -29 32 -17 45 16 18 71 150 106 255 18 56 22 84 18 160 -3 85
-7 97 -37 142 -32 48 -32 50 -26 131 l7 83 -28 10 c-15 6 -41 8 -56 4 -26 -5
-35 0 -78 47 l-49 54 -30 -18 c-44 -26 -71 -21 -112 19 -25 24 -49 37 -75 41
-34 4 -43 1 -68 -25 -24 -26 -27 -37 -23 -69 2 -21 8 -48 12 -60 6 -20 4 -23
-17 -23 -27 0 -62 34 -126 121 -49 65 -88 91 -102 69 -5 -8 -8 -22 -5 -30 2
-8 7 -36 10 -61 l7 -47 -46 -17 c-41 -16 -46 -21 -46 -48 0 -33 44 -81 101
-109 184 -90 252 -111 397 -124 103 -10 99 -28 -22 -93 -75 -40 -84 -42 -185
-47 -180 -10 -306 29 -433 132 -81 67 -141 154 -169 247 -18 56 -24 67 -43 67
-30 0 -45 14 -101 95 -82 120 -114 143 -94 70 28 -100 117 -257 210 -367 62
-76 72 -109 67 -222 -5 -100 -26 -168 -116 -383 -51 -121 -70 -200 -58 -247
10 -42 42 -32 112 36 47 45 67 59 75 51 6 -6 14 -61 17 -122 4 -97 2 -118 -17
-171 -22 -60 -22 -61 -4 -93 29 -49 53 -46 106 14 63 72 100 143 100 193 1 60
-14 178 -25 199 -5 11 -39 32 -74 49 -35 16 -73 41 -84 55 -19 24 -19 25 1 76
30 75 91 169 122 187 25 14 28 13 61 -19 32 -31 41 -34 86 -32 69 3 67 -21 -5
-56 -67 -33 -75 -50 -38 -81 90 -75 103 -95 103 -161 0 -21 -7 -60 -15 -87 -8
-27 -15 -72 -15 -99 0 -67 -21 -143 -64 -238 -40 -87 -45 -91 -139 -96 -27 -2
-31 -28 -8 -57 31 -40 27 -83 -14 -137 -19 -25 -48 -55 -64 -66 -28 -20 -31
-20 -101 -5 -84 19 -87 23 -130 152 -17 51 -34 100 -37 109 -5 12 -1 14 16 8
26 -8 47 7 55 41 8 29 -32 134 -80 214 -18 30 -54 104 -78 163 -25 60 -74 154
-111 209 -67 104 -70 110 -80 191 -3 26 -11 47 -16 47 -19 0 -49 -84 -49 -138
0 -49 5 -61 64 -150 62 -94 201 -361 224 -432 11 -33 8 -31 -51 32 -50 54 -65
65 -79 57 -10 -5 -48 -12 -85 -15 -38 -3 -83 -7 -101 -9 -18 -2 -30 0 -27 4 2
5 31 11 63 15 74 8 146 43 150 73 6 44 -31 133 -98 236 -100 155 -101 158 -45
325 63 186 98 237 233 346 40 31 79 70 87 85 13 27 13 31 -5 54 -11 13 -40 30
-65 37 -44 12 -46 12 -98 -22 -28 -20 -77 -57 -107 -84 -88 -77 -182 -150
-220 -169 -77 -39 -271 1 -439 91 -55 30 -87 42 -93 36 -13 -13 -27 -84 -28
-147 -1 -27 -4 -44 -7 -37 -6 16 -33 15 -57 -3 -48 -36 -122 -8 -170 66 -70
104 -105 121 -153 73 -22 -23 -25 -32 -21 -80 4 -43 11 -61 35 -87 56 -60 63
-77 63 -153 0 -87 -15 -113 -115 -196 -79 -67 -107 -78 -135 -53 -50 45 -110
-43 -110 -160 0 -80 15 -105 66 -105 34 0 59 23 121 113 18 25 60 68 95 94 66
50 95 78 140 131 35 43 67 42 169 -8 46 -22 90 -40 98 -41 10 0 7 -4 -6 -9
-13 -5 -23 -17 -23 -27 0 -14 -5 -13 -25 10 -14 15 -32 27 -40 27 -24 0 -84
-81 -139 -189 -30 -59 -92 -172 -139 -253 -80 -140 -85 -151 -105 -262 -25
-132 -33 -148 -157 -310 l-90 -118 -5 -158 c-3 -87 -7 -160 -10 -162 -3 -2
-14 -8 -25 -14 -33 -19 -53 -65 -64 -150 -5 -44 -21 -110 -34 -145 -20 -53
-31 -68 -63 -86 -35 -20 -53 -23 -163 -23 -123 0 -123 0 -117 23 4 12 11 47
15 77 8 47 6 58 -10 74 -10 11 -20 18 -22 15 -76 -107 -106 -134 -122 -110
-17 28 67 188 133 256 16 17 42 57 57 90 30 66 70 124 157 229 81 97 114 170
122 276 9 109 31 198 69 280 74 163 75 166 82 357 8 237 27 360 80 524 69 212
83 274 95 419 20 245 77 394 268 700 36 58 88 153 114 211 44 96 49 116 59
220 11 117 46 263 81 334 43 85 156 235 178 235 3 0 57 34 119 75 63 41 118
75 122 75 10 0 172 99 249 153 51 35 145 111 309 247 119 99 199 122 311 88
30 -10 150 -48 265 -87 277 -91 434 -132 561 -146 56 -6 63 -5 93 20 48 41 73
99 79 181 5 81 -6 125 -47 182 -37 50 -138 119 -221 150 -61 23 -79 24 -330
28 -883 13 -1082 30 -1232 105 -125 63 -155 115 -114 198 64 125 257 236 471
270 39 6 81 13 95 15 53 9 269 -5 355 -23z m1268 -1769 c66 -88 72 -110 72
-277 0 -182 -8 -211 -73 -259 -26 -19 -56 -44 -66 -55 -19 -21 -19 -22 9 -87
16 -37 57 -106 92 -155 35 -48 63 -92 63 -97 0 -5 -19 -30 -43 -56 -41 -43
-46 -46 -96 -46 -46 0 -56 4 -91 38 -34 31 -42 47 -51 97 -13 69 -5 208 16
305 46 203 48 233 29 337 -25 132 -25 201 1 234 22 30 74 69 90 69 6 0 27 -22
48 -48z m-2491 -1919 c15 -18 3 -16 -16 3 -9 8 -16 25 -15 37 0 21 1 21 10 -2
5 -14 15 -31 21 -38z m33 -173 c-3 -5 -12 -10 -18 -10 -7 0 -6 4 3 10 19 12
23 12 15 0z m515 -450 c0 -3 -13 -13 -28 -22 -16 -10 -47 -37 -70 -62 -31 -34
-42 -55 -47 -92 -12 -85 -63 -156 -146 -202 -30 -17 -71 -48 -91 -69 -53 -55
-135 -196 -158 -273 -11 -37 -31 -82 -45 -101 -14 -19 -42 -60 -62 -93 -100
-155 -136 -186 -219 -186 l-54 0 -2 43 c0 23 0 52 1 65 2 30 -16 28 -73 -9
-27 -16 -51 -27 -54 -24 -4 4 -8 40 -10 80 -4 66 -1 80 21 118 33 56 164 180
263 250 129 91 171 147 225 307 17 52 40 114 51 137 11 23 19 52 18 65 -5 57
-8 55 123 64 146 11 357 13 357 4z m136 -95 c15 -15 23 -33 21 -43 -3 -9 -11
-48 -17 -87 -12 -68 -15 -72 -76 -130 -36 -33 -64 -67 -64 -76 0 -9 11 -21 25
-27 14 -7 28 -19 31 -27 8 -19 -13 -45 -36 -45 -42 0 -67 -43 -69 -120 -1 -18
-11 -31 -36 -44 -19 -10 -36 -24 -38 -30 -2 -6 -2 0 -1 14 2 14 -5 36 -15 49
l-19 25 -35 -27 c-46 -35 -51 -34 -44 7 11 70 87 195 170 279 52 53 157 245
157 288 0 26 16 24 46 -6z"/>
<path d="M4902 9790 c-18 -11 -41 -34 -52 -52 -19 -31 -20 -51 -20 -313 l0
-280 31 -38 c36 -43 96 -77 137 -77 43 0 118 70 133 123 8 29 10 116 6 280 -5
223 -7 240 -29 285 -42 86 -132 117 -206 72z"/>
<path d="M5648 9819 c-16 -9 -18 -27 -18 -153 l0 -144 30 -12 c39 -16 128 -8
178 17 48 24 82 75 82 125 0 49 -52 143 -91 163 -32 17 -155 20 -181 4z"/>
<path d="M4183 9782 l-83 -3 0 -135 c0 -159 6 -175 59 -163 20 5 49 9 64 9 47
0 94 28 112 67 32 68 3 187 -54 219 -9 5 -53 8 -98 6z"/>
<path d="M4096 9321 c-7 -11 2 -300 10 -313 10 -16 153 -5 190 15 40 21 63 56
70 111 10 67 -3 113 -43 157 l-35 39 -94 0 c-51 0 -95 -4 -98 -9z"/>
<path d="M2516 9269 c-37 -176 -53 -279 -43 -279 20 0 137 43 137 50 0 26 -61
285 -69 293 -6 6 -15 -20 -25 -64z"/>
<path d="M5610 8380 c-12 -7 -11 -12 5 -31 11 -12 34 -28 52 -35 35 -15 169
-19 177 -6 11 18 -16 35 -95 58 -90 26 -116 29 -139 14z"/>
<path d="M5792 7547 c-14 -16 26 -87 82 -147 29 -32 44 -40 60 -36 11 3 27 6
34 6 35 0 -7 144 -51 175 -26 19 -111 20 -125 2z"/>
<path d="M5760 6971 c0 -44 12 -64 92 -150 107 -115 129 -172 86 -226 -29 -37
-75 -55 -145 -56 -32 -1 -71 -4 -87 -8 -27 -6 -28 -7 -11 -21 13 -11 57 -17
174 -21 86 -3 157 -7 159 -8 1 0 2 -37 2 -81 0 -70 2 -80 18 -80 43 0 92 68
92 127 -1 45 -34 108 -108 202 -38 47 -101 134 -140 191 -39 58 -84 118 -101
134 l-31 30 0 -33z"/>
<path d="M4716 6358 c-11 -16 -16 -46 -16 -99 0 -69 -2 -80 -23 -96 -32 -25
-44 -50 -48 -98 -3 -32 -1 -39 11 -36 8 3 49 6 92 9 71 4 77 3 88 -18 8 -15
10 -43 6 -80 -8 -68 2 -80 90 -110 32 -11 74 -27 93 -36 37 -18 57 -8 47 23
-3 11 -33 48 -66 84 -68 73 -80 104 -80 206 l0 72 -32 9 c-28 7 -36 17 -60 77
-27 65 -61 115 -79 115 -4 0 -15 -10 -23 -22z"/>
<path d="M5823 4023 c-21 -7 -17 -116 5 -136 21 -19 83 -31 111 -22 40 12 22
85 -21 85 -11 0 -23 13 -32 34 -13 32 -38 47 -63 39z"/>
<path d="M3790 3909 c0 -85 11 -109 50 -109 57 0 132 117 99 156 -10 13 -14
13 -29 -1 -23 -21 -63 -19 -85 5 -10 11 -22 20 -27 20 -4 0 -8 -32 -8 -71z"/>
<path d="M3677 3340 c-28 -22 -58 -25 -89 -9 -44 23 -55 -26 -21 -93 19 -38
28 -48 49 -48 45 0 82 28 109 81 39 79 13 117 -48 69z"/>
<path d="M4383 3640 c-18 -11 -33 -24 -33 -29 0 -15 89 -96 113 -102 28 -7 91
7 121 27 16 10 26 29 30 56 4 22 5 43 2 45 -3 3 -28 -1 -56 -8 -49 -12 -55
-12 -90 9 -47 27 -47 27 -87 2z"/>
</g>
</svg>
